<svg xmlns="http://www.w3.org/2000/svg" viewBox="0 0 96 96"><defs><linearGradient id="g" x1="0" y1="0" x2="1" y2="1"><stop stop-color="#2ED9D1"/><stop offset="1" stop-color="#118A9A"/></linearGradient><linearGradient id="d" x1="0" y1="0" x2="0" y2="1"><stop stop-color="#19384A"/><stop offset="1" stop-color="#071A28"/></linearGradient><filter id="s" x="-30%" y="-30%" width="160%" height="160%"><feDropShadow dx="0" dy="3" stdDeviation="3" flood-color="#12C7C0" flood-opacity=".28"/></filter></defs><g filter="url(#s)"><rect x="25" y="25" width="46" height="46" rx="7" fill="url(#d)" stroke="#23D2CA" stroke-width="3"/><rect x="35" y="35" width="26" height="26" rx="4" fill="url(#g)"/><path d="M31 17v8M42 17v8M53 17v8M64 17v8M31 71v8M42 71v8M53 71v8M64 71v8M17 31h8M17 42h8M17 53h8M17 64h8M71 31h8M71 42h8M71 53h8M71 64h8" stroke="#21CFC7" stroke-width="4" stroke-linecap="round"/></g></svg>